<svg id="Layer_1" data-name="Layer 1" xmlns="http://www.w3.org/2000/svg" viewBox="0 0 52.62 54.54"><defs><style>.cls-1{fill:#323c47;}.cls-2{fill:#444f5c;}.cls-3{fill:#576571;}</style></defs><title>land_icon-01</title><rect id="Left_Tree_Trunk" data-name="Left Tree Trunk" class="cls-1" x="11.92" y="17.5" width="2.27" height="10.32"/><circle id="Left_Tree_Top" data-name="Left Tree Top" class="cls-2" cx="13.05" cy="9.03" r="9.03"/><rect id="Middle_Tree_Trunk" data-name="Middle Tree Trunk" class="cls-3" x="38.55" y="18.85" width="0.91" height="4.14"/><circle id="Middle_Tree_Top" data-name="Middle Tree Top" class="cls-1" cx="39.01" cy="15.45" r="3.63"/><rect id="Right_Tree_Trunk" data-name="Right Tree Trunk" class="cls-2" x="45.61" y="18.37" width="0.62" height="2.83"/><circle id="Right_Tree_Top" data-name="Right Tree Top" class="cls-3" cx="45.92" cy="16.05" r="2.48"/><path id="Upper_Land" data-name="Upper Land" class="cls-1" d="M61.55,40.45c-.48-1.41-2.63-2-4-2C49,38.58,36.08,45.43,33,46.78s-4.6,11,0,11S61.63,53,61.63,53,62.9,44.26,61.55,40.45Z" transform="translate(-9.55 -17.46)"/><path id="Lower_Land" data-name="Lower Land" class="cls-3" d="M61.66,52.8c-10.45,3-16.81-.5-27.67-5.56s-23.2-1.05-24,.45a5,5,0,0,0-.46,2.17h0c0,.07,0,.15,0,.22s0,.41,0,.61C10.1,62.6,21.71,72,35.8,72,50.22,72,59.09,62.25,61,55.58h0A16.55,16.55,0,0,0,61.66,52.8Z" transform="translate(-9.55 -17.46)"/><g id="R"><path class="cls-1" d="M12.47,48.92h2a1.71,1.71,0,0,1,1.25.44,1.35,1.35,0,0,1,.37,1h0a1.33,1.33,0,0,1-.92,1.33l1,1.53h-1.1l-.92-1.37h-.74v1.37h-.94ZM14.37,51c.46,0,.72-.25.72-.61h0c0-.4-.28-.61-.74-.61h-.94V51Z" transform="translate(-9.55 -17.46)"/></g></svg>