<svg id="Apartment_Building" data-name="Apartment Building" xmlns="http://www.w3.org/2000/svg" viewBox="0 0 72 57.22"><defs><style>.cls-1{fill:#323c47;}.cls-2{fill:#444f5c;}.cls-3{fill:#576571;}.cls-4{fill:#fff;}</style></defs><title>multifamily_icon-01</title><g id="Third_Floor_Balcony_Rail" data-name="Third Floor Balcony Rail"><rect class="cls-1" x="9.5" y="13.11" width="15" height="0.31"/><rect class="cls-1" x="9.5" y="18.72" width="15" height="0.31"/><rect class="cls-1" x="6.71" y="31.11" width="6.4" height="0.31" transform="translate(41.18 6.57) rotate(90)"/><rect class="cls-1" x="21.43" y="30.76" width="5.77" height="0.18" transform="translate(55.17 -8.24) rotate(90)"/><rect class="cls-1" x="20.67" y="30.76" width="5.77" height="0.18" transform="translate(54.4 -7.48) rotate(90)"/><rect class="cls-1" x="19.92" y="30.76" width="5.77" height="0.18" transform="translate(53.66 -6.74) rotate(90)"/><rect class="cls-1" x="19.16" y="30.76" width="5.77" height="0.18" transform="translate(52.9 -5.97) rotate(90)"/><rect class="cls-1" x="19.16" y="30.76" width="5.77" height="0.18" transform="translate(52.9 -5.97) rotate(90)"/><rect class="cls-1" x="18.41" y="30.76" width="5.77" height="0.18" transform="translate(52.15 -5.23) rotate(90)"/><rect class="cls-1" x="17.65" y="30.76" width="5.77" height="0.18" transform="translate(51.39 -4.47) rotate(90)"/><rect class="cls-1" x="16.9" y="30.76" width="5.77" height="0.18" transform="translate(50.64 -3.72) rotate(90)"/><rect class="cls-1" x="16.14" y="30.76" width="5.77" height="0.18" transform="translate(49.88 -2.96) rotate(90)"/><rect class="cls-1" x="15.4" y="30.76" width="5.77" height="0.18" transform="translate(49.13 -2.21) rotate(90)"/><rect class="cls-1" x="14.64" y="30.76" width="5.77" height="0.18" transform="translate(48.37 -1.45) rotate(90)"/><rect class="cls-1" x="13.89" y="30.76" width="5.77" height="0.18" transform="translate(47.63 -0.7) rotate(90)"/><rect class="cls-1" x="13.13" y="30.76" width="5.77" height="0.18" transform="translate(46.86 0.06) rotate(90)"/><rect class="cls-1" x="12.38" y="30.76" width="5.77" height="0.18" transform="translate(46.12 0.8) rotate(90)"/><rect class="cls-1" x="11.62" y="30.76" width="5.77" height="0.18" transform="translate(45.36 1.57) rotate(90)"/><rect class="cls-1" x="10.87" y="30.76" width="5.77" height="0.18" transform="translate(44.61 2.31) rotate(90)"/><rect class="cls-1" x="10.11" y="30.76" width="5.77" height="0.18" transform="translate(43.85 3.07) rotate(90)"/><rect class="cls-1" x="9.36" y="30.76" width="5.77" height="0.18" transform="translate(43.1 3.82) rotate(90)"/><rect class="cls-1" x="8.6" y="30.76" width="5.77" height="0.18" transform="translate(42.34 4.58) rotate(90)"/><rect class="cls-1" x="7.86" y="30.76" width="5.77" height="0.18" transform="translate(41.59 5.33) rotate(90)"/><rect class="cls-1" x="7.1" y="30.76" width="5.77" height="0.18" transform="translate(40.83 6.09) rotate(90)"/></g><rect id="Middle_Third" data-name="Middle Third" class="cls-1" x="24.02" y="2.06" width="16.88" height="53.97"/><rect id="Right_Third" data-name="Right Third" class="cls-2" x="40.9" y="5.18" width="21.2" height="50.85"/><rect id="Left_Third" data-name="Left Third" class="cls-3" x="10.26" y="21.56" width="13.77" height="34.47"/><rect id="Left_Window_Second_Floor" data-name="Left Window Second Floor" class="cls-4" x="14.37" y="27.08" width="5.55" height="5.55"/><g id="Right_Windows_Second_Floor" data-name="Right Windows Second Floor"><rect class="cls-4" x="48.42" y="27.08" width="2.95" height="7.72"/><rect class="cls-4" x="51.62" y="27.08" width="2.95" height="7.72"/></g><g id="Middle_Windows_Second_Floor" data-name="Middle Windows Second Floor"><rect class="cls-4" x="29.38" y="27.08" width="2.95" height="7.72"/><rect class="cls-4" x="32.58" y="27.08" width="2.95" height="7.72"/></g><g id="Middle_Windows_Top" data-name="Middle Windows Top"><rect class="cls-4" x="29.38" y="9.01" width="2.95" height="7.72"/><rect class="cls-4" x="32.58" y="9.01" width="2.95" height="7.72"/></g><g id="Right_Windows_THird_Floor" data-name="Right Windows THird Floor"><rect class="cls-4" x="48.42" y="9.01" width="2.95" height="7.72"/><rect class="cls-4" x="51.62" y="9.01" width="2.95" height="7.72"/></g><g id="Right_Windows_First_Floor" data-name="Right Windows First Floor"><rect class="cls-4" x="48.42" y="43.81" width="2.95" height="7.72"/><rect class="cls-4" x="51.62" y="43.81" width="2.95" height="7.72"/></g><rect id="Left_Window_First_Floor" data-name="Left Window First Floor" class="cls-4" x="14.37" y="43.93" width="5.55" height="5.55"/><rect id="Left_Topper" data-name="Left Topper" class="cls-2" x="9.13" y="19.5" width="16.02" height="2.06"/><rect id="Right_Topper" data-name="Right Topper" class="cls-1" x="40.12" y="3.12" width="22.75" height="2.06"/><rect id="Middle_Topper" data-name="Middle Topper" class="cls-2" x="23.27" width="18.38" height="2.06"/><g id="Lower_part_Right_Third" data-name="Lower part Right Third"><rect class="cls-3" x="40.9" y="16.39" width="21.2" height="9.29"/><rect class="cls-3" x="40.9" y="39.26" width="21.2" height="3.05"/><rect class="cls-3" x="40.9" y="21.56" width="3.1" height="34.47"/><rect class="cls-3" x="58.99" y="16.39" width="3.1" height="39.65"/></g><rect id="Right_Third_Floor_Rail_Top" data-name="Right Third Floor Rail Top" class="cls-1" x="40.12" y="15.67" width="22.2" height="0.72"/><rect id="Right_Second_Floor_Balcony_Top" data-name="Right Second Floor Balcony Top" class="cls-1" x="43.62" y="24.96" width="15.75" height="0.72"/><rect id="Right_First_Floor_Balcony_Top" data-name="Right First Floor Balcony Top" class="cls-1" x="43.62" y="41.59" width="15.75" height="0.72"/><rect id="Left_Third_Floor_Overhang" data-name="Left Third Floor Overhang" class="cls-1" x="19.4" y="6.49" width="4.62" height="0.72"/><rect id="Right_Third_Floor_Overhang" data-name="Right Third Floor Overhang" class="cls-1" x="47.51" y="6.49" width="7.97" height="0.72"/><g id="Second_Floor_Balcony_Rail" data-name="Second Floor Balcony Rail"><rect class="cls-1" x="44" y="32.71" width="15" height="0.31"/><rect class="cls-1" x="44" y="38.33" width="15" height="0.31"/><rect class="cls-1" x="55.93" y="50.36" width="5.77" height="0.18" transform="translate(109.27 -23.14) rotate(90)"/><rect class="cls-1" x="55.17" y="50.36" width="5.77" height="0.18" transform="translate(108.51 -22.38) rotate(90)"/><rect class="cls-1" x="54.42" y="50.36" width="5.77" height="0.18" transform="translate(107.76 -21.63) rotate(90)"/><rect class="cls-1" x="53.66" y="50.36" width="5.77" height="0.18" transform="translate(107 -20.87) rotate(90)"/><rect class="cls-1" x="53.66" y="50.36" width="5.77" height="0.18" transform="translate(107 -20.87) rotate(90)"/><rect class="cls-1" x="52.91" y="50.36" width="5.77" height="0.18" transform="translate(106.25 -20.12) rotate(90)"/><rect class="cls-1" x="52.15" y="50.36" width="5.77" height="0.18" transform="translate(105.49 -19.36) rotate(90)"/><rect class="cls-1" x="51.4" y="50.36" width="5.77" height="0.18" transform="translate(104.74 -18.62) rotate(90)"/><rect class="cls-1" x="50.64" y="50.36" width="5.77" height="0.18" transform="translate(103.98 -17.86) rotate(90)"/><rect class="cls-1" x="49.9" y="50.36" width="5.77" height="0.18" transform="translate(103.24 -17.11) rotate(90)"/><rect class="cls-1" x="49.14" y="50.36" width="5.77" height="0.18" transform="translate(102.48 -16.35) rotate(90)"/><rect class="cls-1" x="48.39" y="50.36" width="5.77" height="0.18" transform="translate(101.73 -15.6) rotate(90)"/><rect class="cls-1" x="47.63" y="50.36" width="5.77" height="0.18" transform="translate(100.97 -14.84) rotate(90)"/><rect class="cls-1" x="46.88" y="50.36" width="5.77" height="0.18" transform="translate(100.22 -14.09) rotate(90)"/><rect class="cls-1" x="46.12" y="50.36" width="5.77" height="0.18" transform="translate(99.46 -13.33) rotate(90)"/><rect class="cls-1" x="45.37" y="50.36" width="5.77" height="0.18" transform="translate(98.71 -12.58) rotate(90)"/><rect class="cls-1" x="44.61" y="50.36" width="5.77" height="0.18" transform="translate(97.95 -11.82) rotate(90)"/><rect class="cls-1" x="43.86" y="50.36" width="5.77" height="0.18" transform="translate(97.2 -11.08) rotate(90)"/><rect class="cls-1" x="43.1" y="50.36" width="5.77" height="0.18" transform="translate(96.44 -10.32) rotate(90)"/><rect class="cls-1" x="42.36" y="50.36" width="5.77" height="0.18" transform="translate(95.7 -9.57) rotate(90)"/><rect class="cls-1" x="41.6" y="50.36" width="5.77" height="0.18" transform="translate(94.94 -8.81) rotate(90)"/></g><g id="First_Floor_Balcony_Rail" data-name="First Floor Balcony Rail"><rect class="cls-1" x="44" y="49.42" width="15" height="0.31"/><rect class="cls-1" x="44" y="55.04" width="15" height="0.31"/><rect class="cls-1" x="55.93" y="67.08" width="5.77" height="0.18" transform="translate(125.98 -6.43) rotate(90)"/><rect class="cls-1" x="55.17" y="67.08" width="5.77" height="0.18" transform="translate(125.22 -5.66) rotate(90)"/><rect class="cls-1" x="54.42" y="67.08" width="5.77" height="0.18" transform="translate(124.48 -4.92) rotate(90)"/><rect class="cls-1" x="53.66" y="67.08" width="5.77" height="0.18" transform="translate(123.72 -4.16) rotate(90)"/><rect class="cls-1" x="53.66" y="67.08" width="5.77" height="0.18" transform="translate(123.72 -4.16) rotate(90)"/><rect class="cls-1" x="52.91" y="67.08" width="5.77" height="0.18" transform="translate(122.97 -3.41) rotate(90)"/><rect class="cls-1" x="52.15" y="67.08" width="5.77" height="0.18" transform="translate(122.21 -2.65) rotate(90)"/><rect class="cls-1" x="51.4" y="67.08" width="5.77" height="0.18" transform="translate(121.46 -1.9) rotate(90)"/><rect class="cls-1" x="50.64" y="67.08" width="5.77" height="0.18" transform="translate(120.7 -1.14) rotate(90)"/><rect class="cls-1" x="49.9" y="67.08" width="5.77" height="0.18" transform="translate(119.95 -0.39) rotate(90)"/><rect class="cls-1" x="49.14" y="67.08" width="5.77" height="0.18" transform="translate(119.19 0.37) rotate(90)"/><rect class="cls-1" x="48.39" y="67.08" width="5.77" height="0.18" transform="translate(118.44 1.11) rotate(90)"/><rect class="cls-1" x="47.63" y="67.08" width="5.77" height="0.18" transform="translate(117.68 1.88) rotate(90)"/><rect class="cls-1" x="46.88" y="67.08" width="5.77" height="0.18" transform="translate(116.94 2.62) rotate(90)"/><rect class="cls-1" x="46.12" y="67.08" width="5.77" height="0.18" transform="translate(116.18 3.38) rotate(90)"/><rect class="cls-1" x="45.37" y="67.08" width="5.77" height="0.18" transform="translate(115.43 4.13) rotate(90)"/><rect class="cls-1" x="44.61" y="67.08" width="5.77" height="0.18" transform="translate(114.67 4.89) rotate(90)"/><rect class="cls-1" x="43.86" y="67.08" width="5.77" height="0.18" transform="translate(113.92 5.64) rotate(90)"/><rect class="cls-1" x="43.1" y="67.08" width="5.77" height="0.18" transform="translate(113.16 6.4) rotate(90)"/><rect class="cls-1" x="42.36" y="67.08" width="5.77" height="0.18" transform="translate(112.41 7.15) rotate(90)"/><rect class="cls-1" x="41.6" y="67.08" width="5.77" height="0.18" transform="translate(111.65 7.91) rotate(90)"/></g><g id="Doors"><rect class="cls-4" x="27" y="43.68" width="5.28" height="12.47"/><rect class="cls-4" x="32.64" y="43.68" width="5.28" height="12.47"/></g><g id="R_Door_Handle" data-name="R Door Handle"><path class="cls-3" d="M32.86,64.06h.71a.62.62,0,0,1,.45.16.49.49,0,0,1,.13.36h0a.48.48,0,0,1-.33.48l.38.56h-.4l-.33-.5H33.2v.5h-.34Zm.69.76c.17,0,.26-.09.26-.22h0c0-.15-.1-.22-.27-.22H33.2v.45Z" transform="translate(0 -14.78)"/></g><g id="R_Left_Door_Handle" data-name="R Left Door Handle"><path class="cls-3" d="M32.07,65.62h-.34v-.5h-.27l-.33.5h-.4l.38-.56a.48.48,0,0,1-.33-.48h0a.49.49,0,0,1,.13-.36.62.62,0,0,1,.45-.16h.71Zm-.34-.8v-.45h-.34c-.17,0-.27.08-.27.22h0c0,.13.1.22.26.22Z" transform="translate(0 -14.78)"/></g><g id="R"><path class="cls-3" d="M30.31,51.7h2.27a2,2,0,0,1,1.45.5,1.56,1.56,0,0,1,.43,1.14h0a1.54,1.54,0,0,1-1.07,1.54l1.22,1.78H33.33l-1.07-1.59H31.4v1.59H30.31Zm2.2,2.42c.53,0,.84-.28.84-.7h0c0-.47-.33-.71-.86-.71H31.4v1.43Z" transform="translate(0 -14.78)"/></g><rect class="cls-1" y="55.83" width="72" height="1.38"/></svg>