<svg id="Layer_1" data-name="Layer 1" xmlns="http://www.w3.org/2000/svg" viewBox="0 0 72 52.2"><defs><style>.cls-1{fill:#323c47;}.cls-2{fill:#576571;}</style></defs><title>property_management_icon-01</title><g id="Hammer"><path class="cls-1" d="M49,20.81a10.57,10.57,0,0,1,2.38.6,20,20,0,0,1,4,2.44c1.62,1.32,1.61,1.4,2.13,2.81a5.44,5.44,0,0,0,3.94,3.5L63.18,32l-.07.71L60,35.57l-.76-.08-1.55-1.63a3.77,3.77,0,0,0-1.34-2.4A5.4,5.4,0,0,0,53.23,30c-.25.12-2.05,1.55-2.05,1.55l-3.54-3.44s2-2.33,1.81-3.21-1-2.23-3.49-2.5a21.71,21.71,0,0,0-6.27.23c-1.51.29-1-.21-1-.21.25-.17,5.57-1.9,8-1.78" transform="translate(0 -19.8)"/><path class="cls-1" d="M10.5,69.69a11.47,11.47,0,0,1-1.6-2.17c-.17-.36,0-.73.34-1.32S10.7,65,12.61,63.37,26.85,48.68,28.9,46.6,40.44,35.79,42.22,34a36.63,36.63,0,0,0,3.45-4.23,21.91,21.91,0,0,1,2-1.62l3.53,3.45a21.91,21.91,0,0,1-1.57,2,36.63,36.63,0,0,0-4.14,3.55C43.69,39,35.18,48.67,33.15,50.76S18.31,65.48,16.77,67.43s-2.17,3-2.75,3.44-.94.53-1.31.37a11.47,11.47,0,0,1-2.2-1.55" transform="translate(0 -19.8)"/></g><path id="Screw_Driver" data-name="Screw Driver" class="cls-2" d="M12.09,20.42l-.62.62,2.72,3.3,1.1.14,22,22L35.73,48l-.29,1.49,1.23,1.08a6.14,6.14,0,0,1,1.77.49,7.27,7.27,0,0,1,2.81,2.31,11.59,11.59,0,0,1,1.54,3.31L56.31,70.26a3.64,3.64,0,0,0,2.19.34,5.13,5.13,0,0,0,3.76-3.76,3.64,3.64,0,0,0-.34-2.19L48.39,51.12a11.59,11.59,0,0,1-3.31-1.54,7.27,7.27,0,0,1-2.31-2.81A6.14,6.14,0,0,1,42.28,45L41.2,43.78l-1.49.29-1.56,1.56-22-22L16,22.53l-3.3-2.72Z" transform="translate(0 -19.8)"/><g id="R"><path class="cls-1" d="M44.74,55.44l1.4-1.4a1.72,1.72,0,0,1,1.2-.58,1.35,1.35,0,0,1,1,.44h0a1.34,1.34,0,0,1,.29,1.6l1.84.35-.79.79L48,56.32l-.53.53,1,1-.67.67Zm2.84.13a.63.63,0,0,0,.08-.95h0c-.29-.29-.64-.24-1,.09l-.67.67.88.88Z" transform="translate(0 -19.8)"/></g><rect class="cls-1" y="50.81" width="72" height="1.38"/></svg>