<svg id="Layer_1" data-name="Layer 1" xmlns="http://www.w3.org/2000/svg" viewBox="0 0 72 47.8"><defs><style>.cls-1{fill:#444f5c;}.cls-2{fill:#576571;}.cls-3{fill:#323c47;}.cls-4,.cls-5,.cls-6{fill:#fff;}.cls-5,.cls-6{stroke:#444f5c;stroke-miterlimit:10;}.cls-5{stroke-width:0.41px;}.cls-6{stroke-width:0.41px;}</style></defs><title>retail_icon-01</title><g id="Right_Building" data-name="Right Building"><rect id="Right_Building-2" data-name="Right Building" class="cls-1" x="51.04" y="25.91" width="13.27" height="20.66"/><rect class="cls-2" x="57.58" y="43.56" width="0.19" height="13.27" transform="translate(107.87 -31.68) rotate(90)"/></g><g id="Middle_Top" data-name="Middle Top"><rect class="cls-3" x="26.57" y="14.05" width="25.17" height="0.78"/><rect class="cls-3" x="26.57" y="13.54" width="25.62" height="0.64"/></g><g id="Right_Top" data-name="Right Top"><rect class="cls-3" x="39.83" y="25.08" width="25.17" height="0.83"/><rect class="cls-3" x="39.83" y="24.62" width="25.62" height="0.65"/></g><rect id="Middle_Building" data-name="Middle Building" class="cls-1" x="30.82" y="14.83" width="20.22" height="31.74"/><rect id="Pillar_2" data-name="Pillar 2" class="cls-3" x="47.93" y="50.29" width="3.11" height="20.48" transform="translate(98.97 96.86) rotate(180)"/><rect id="Pillar_2-2" data-name="Pillar 2" class="cls-3" x="61.11" y="54.29" width="3.11" height="16.41" transform="translate(125.33 100.79) rotate(180)"/><rect id="Middle_Above_Door" data-name="Middle Above Door" class="cls-2" x="37.36" y="43.99" width="4.26" height="16.88" transform="translate(91.92 -11.27) rotate(90)"/><rect id="Right_Building-3" data-name="Right Building" class="cls-2" x="56" y="49.44" width="0.19" height="10.03" transform="translate(110.56 -25.84) rotate(90)"/><g id="Middle_Windows" data-name="Middle Windows"><rect class="cls-4" x="31.44" y="17.94" width="3.78" height="3.78"/><rect class="cls-4" x="35.56" y="17.94" width="3.78" height="3.78"/><rect class="cls-4" x="31.44" y="22.13" width="3.78" height="3.78"/><rect class="cls-4" x="35.56" y="22.13" width="3.78" height="3.78"/><rect class="cls-4" x="39.69" y="17.94" width="3.78" height="3.78"/><rect class="cls-4" x="43.81" y="17.94" width="3.78" height="3.78"/><rect class="cls-4" x="39.69" y="22.13" width="3.78" height="3.78"/><rect class="cls-4" x="43.81" y="22.13" width="3.78" height="3.78"/></g><g id="Right_Door" data-name="Right Door"><rect class="cls-4" x="51.24" y="30.37" width="9.66" height="15.99"/><path class="cls-1" d="M60.7,54.78V70.36H51.45V54.78H60.7m.41-.41H51V70.77H61.11V54.36Z" transform="translate(0 -24.2)"/><rect class="cls-5" x="53.75" y="37.56" width="4.64" height="8.88"/><line class="cls-5" x1="53.75" y1="37.56" x2="53.75" y2="30.26"/><line class="cls-5" x1="58.4" y1="37.56" x2="58.4" y2="30.26"/><rect class="cls-4" x="53.96" y="46.2" width="4.23" height="0.47"/></g><g id="Middle_Doors" data-name="Middle Doors"><rect class="cls-4" x="31.65" y="30.55" width="15.74" height="15.81"/><path class="cls-1" d="M47.18,55v15.4H31.85V55H47.18m.41-.41H31.44V70.77H47.59V54.55Z" transform="translate(0 -24.2)"/><rect class="cls-6" x="34.87" y="37.67" width="4.64" height="8.77"/><rect class="cls-6" x="39.51" y="37.67" width="4.64" height="8.77"/><line class="cls-6" x1="34.87" y1="37.67" x2="34.87" y2="30.45"/><line class="cls-6" x1="44.16" y1="37.67" x2="44.16" y2="30.45"/><rect class="cls-4" x="35.07" y="46.21" width="4.23" height="0.46"/><rect class="cls-4" x="39.72" y="46.21" width="4.23" height="0.46"/></g><rect id="Left_Building" data-name="Left Building" class="cls-1" x="8.96" y="5.25" width="21.86" height="41.32"/><g id="Left_Windows" data-name="Left Windows"><rect class="cls-4" x="11.81" y="7.14" width="3.78" height="3.78"/><rect class="cls-4" x="15.94" y="7.14" width="3.78" height="3.78"/><rect class="cls-4" x="20.06" y="7.14" width="3.78" height="3.78"/><rect class="cls-4" x="24.18" y="7.14" width="3.78" height="3.78"/><rect class="cls-4" x="11.81" y="11.33" width="3.78" height="3.78"/><rect class="cls-4" x="15.94" y="11.33" width="3.78" height="3.78"/><rect class="cls-4" x="20.06" y="11.33" width="3.78" height="3.78"/><rect class="cls-4" x="24.18" y="11.33" width="3.78" height="3.78"/><rect class="cls-4" x="11.81" y="15.51" width="3.78" height="3.78"/><rect class="cls-4" x="15.94" y="15.51" width="3.78" height="3.78"/><rect class="cls-4" x="20.06" y="15.51" width="3.78" height="3.78"/><rect class="cls-4" x="24.18" y="15.51" width="3.78" height="3.78"/></g><g id="Left_Top" data-name="Left Top"><polygon class="cls-3" points="32.84 4.4 19.89 0.47 6.93 4.4 6.93 5.25 32.84 5.25 32.84 4.4"/><polygon class="cls-3" points="33.23 3.93 19.89 0 6.55 3.93 6.55 4.78 33.23 4.78 33.23 3.93"/></g><g id="Left_Above_Doors" data-name="Left Above Doors"><rect class="cls-2" x="17.61" y="36.67" width="4.19" height="22.69" transform="translate(67.72 4.1) rotate(90)"/><rect class="cls-2" x="17.76" y="44.35" width="4.26" height="16.15" transform="translate(72.31 8.33) rotate(90)"/></g><rect id="Pillar_1" data-name="Pillar 1" class="cls-3" x="8.72" y="50.29" width="3.09" height="20.48" transform="translate(20.54 96.86) rotate(180)"/><rect id="Pillar_2-3" data-name="Pillar 2" class="cls-3" x="27.96" y="50.29" width="3.09" height="20.48" transform="translate(59.02 96.86) rotate(180)"/><g id="Left_Doors" data-name="Left Doors"><rect class="cls-4" x="12.01" y="30.55" width="15.74" height="15.81"/><path class="cls-1" d="M27.54,55v15.4H12.21V55H27.54m.41-.41H11.8V70.77H27.95V54.55Z" transform="translate(0 -24.2)"/><rect class="cls-6" x="15.23" y="37.67" width="4.64" height="8.77"/><rect class="cls-6" x="19.88" y="37.67" width="4.64" height="8.77"/><line class="cls-6" x1="15.23" y1="37.67" x2="15.23" y2="30.45"/><line class="cls-6" x1="24.52" y1="37.67" x2="24.52" y2="30.45"/><rect class="cls-4" x="15.44" y="46.21" width="4.23" height="0.46"/><rect class="cls-4" x="20.08" y="46.21" width="4.23" height="0.46"/></g><g id="R"><path class="cls-3" d="M17.85,48.88h2.09a1.83,1.83,0,0,1,1.33.46,1.44,1.44,0,0,1,.39,1h0a1.42,1.42,0,0,1-1,1.42l1.12,1.64H20.63l-1-1.47h-.79v1.47h-1Zm2,2.22c.49,0,.77-.26.77-.65h0c0-.43-.3-.65-.79-.65h-1v1.31Z" transform="translate(0 -24.2)"/></g><rect class="cls-3" y="46.41" width="72" height="1.38"/></svg>