<svg id="Layer_1" data-name="Layer 1" xmlns="http://www.w3.org/2000/svg" viewBox="0 0 72 61.26"><defs><style>.cls-1{fill:#444f5c;}.cls-2{fill:#323c47;}.cls-3{fill:#fff;}.cls-4{fill:#576571;}</style></defs><title>industrial_icon-01</title><polyline id="Stack_1" data-name="Stack 1" class="cls-1" points="17.08 5.94 15.14 5.94 14.17 32.74 19.99 32.74 19.02 5.94 17.08 5.94"/><polyline id="Stack_2" data-name="Stack 2" class="cls-1" points="24.01 5.96 22.01 5.96 21.01 32.76 27.02 32.76 26.02 5.96 24.01 5.96"/><g id="Left_Part_of_Building" data-name="Left Part of Building"><rect class="cls-2" x="9.94" y="32.76" width="39.47" height="26.57"/><polygon class="cls-2" points="49.4 32.78 36.24 32.78 36.24 22.9 49.4 32.78"/><polygon class="cls-2" points="36.24 32.78 23.08 32.78 23.08 22.9 36.24 32.78"/><polygon class="cls-2" points="23.1 32.78 9.94 32.78 9.94 22.9 23.1 32.78"/></g><g id="Windows"><rect class="cls-3" x="12.88" y="39.31" width="7.96" height="6.39"/><rect class="cls-3" x="12.88" y="46.29" width="7.96" height="6.39"/><rect class="cls-3" x="21.41" y="39.31" width="7.96" height="6.39"/><rect class="cls-3" x="21.41" y="46.29" width="7.96" height="6.39"/><rect class="cls-3" x="29.96" y="39.31" width="7.96" height="6.39"/><rect class="cls-3" x="29.96" y="46.29" width="7.96" height="6.39"/><rect class="cls-3" x="38.48" y="39.31" width="7.96" height="6.39"/><rect class="cls-3" x="38.48" y="46.29" width="7.96" height="6.39"/></g><g id="Right_Part_of_Building" data-name="Right Part of Building"><rect class="cls-1" x="49.4" y="32.76" width="13.18" height="26.55"/><polygon class="cls-1" points="62.57 32.76 49.4 32.76 49.4 22.86 62.57 32.76"/></g><g id="Smoke_1" data-name="Smoke 1"><path class="cls-4" d="M17,16.42a4.49,4.49,0,0,1,.12-.49,5,5,0,0,1,.53-1.24A4.64,4.64,0,0,1,19,13.23a4.76,4.76,0,0,1,1-.54,6,6,0,0,1,1.13-.31c.79-.11,1.41-.11,2-.17A8.09,8.09,0,0,0,24.76,12a5.93,5.93,0,0,0,1.09-.5l.45-.22s-.07.17-.22.46a3.33,3.33,0,0,1-.86,1.09,4.92,4.92,0,0,1-1.8.83,17.1,17.1,0,0,1-2,.36,6.66,6.66,0,0,0-3.06,1.3c-.39.3-.73.59-1,.79Z" transform="translate(0 -11.28)"/></g><g id="Smoke_2" data-name="Smoke 2"><path class="cls-4" d="M24,16.42a4.49,4.49,0,0,1,.12-.49,5,5,0,0,1,.53-1.24A4.64,4.64,0,0,1,26,13.23a4.76,4.76,0,0,1,1-.54,6,6,0,0,1,1.13-.31c.79-.11,1.41-.11,2-.17A8.09,8.09,0,0,0,31.8,12a5.93,5.93,0,0,0,1.09-.5l.45-.22s-.07.17-.22.46a3.33,3.33,0,0,1-.86,1.09,4.92,4.92,0,0,1-1.8.83,17.1,17.1,0,0,1-2,.36,6.66,6.66,0,0,0-3.06,1.3c-.39.3-.73.59-1,.79Z" transform="translate(0 -11.28)"/></g><g id="Line_1" data-name="Line 1"><polygon class="cls-3" points="21.77 34.48 9.92 25.47 9.92 25.21 22.11 34.48 21.77 34.48"/></g><g id="Line_2" data-name="Line 2"><polygon class="cls-3" points="34.93 34.48 23.08 25.47 23.08 25.21 35.27 34.48 34.93 34.48"/></g><g id="Line_3" data-name="Line 3"><polygon class="cls-3" points="48.09 34.48 36.24 25.47 36.24 25.21 48.44 34.48 48.09 34.48"/></g><g id="Line_4" data-name="Line 4"><polygon class="cls-3" points="61.25 34.48 49.4 25.47 49.4 25.21 61.6 34.48 61.25 34.48"/></g><g id="Door"><rect class="cls-3" x="51.71" y="49.57" width="4.13" height="9.76"/><rect class="cls-3" x="56.12" y="49.57" width="4.13" height="9.76"/></g><g id="R"><path class="cls-2" d="M54,51.09h2.11a1.84,1.84,0,0,1,1.35.47,1.45,1.45,0,0,1,.4,1.06h0a1.44,1.44,0,0,1-1,1.43L58,55.72H56.82l-1-1.48H55v1.48H54Zm2,2.25c.5,0,.78-.26.78-.65h0c0-.44-.3-.66-.8-.66H55v1.33Z" transform="translate(0 -11.28)"/></g><rect class="cls-2" y="59.26" width="72" height="2.01"/></svg>