<svg id="Layer_1" data-name="Layer 1" xmlns="http://www.w3.org/2000/svg" viewBox="0 0 72 59.3"><defs><style>.cls-1{fill:#323c47;}.cls-2{fill:#434f5c;}.cls-3{fill:#576571;}.cls-4{fill:#fff;}</style></defs><title>office_icon-01</title><rect id="Antenna" class="cls-1" x="18.4" y="0.11" width="0.27" height="12.73"/><rect id="Rectangel_under_antenna" data-name="Rectangel under antenna" class="cls-2" x="17.43" y="9.02" width="2.34" height="0.55"/><rect id="Building_1" data-name="Building 1" class="cls-3" x="11.48" y="12.18" width="14.18" height="46.39"/><rect id="Building_3" data-name="Building 3" class="cls-2" x="37.35" y="3.09" width="23.17" height="55.49"/><rect id="Building_2" data-name="Building 2" class="cls-1" x="21.86" y="22.62" width="24.89" height="36.1"/><g id="B2_Windows" data-name="B2 Windows"><rect class="cls-4" x="23.9" y="24.16" width="5.93" height="5.25"/><rect class="cls-4" x="31.41" y="24.16" width="5.93" height="5.25"/><rect class="cls-4" x="38.93" y="24.16" width="5.93" height="5.25"/><rect class="cls-4" x="23.9" y="30.67" width="5.93" height="5.25"/><rect class="cls-4" x="31.41" y="30.67" width="5.93" height="5.25"/><rect class="cls-4" x="38.93" y="30.67" width="5.93" height="5.25"/><rect class="cls-4" x="23.9" y="37.18" width="5.93" height="5.25"/><rect class="cls-4" x="31.41" y="37.18" width="5.93" height="5.25"/><rect class="cls-4" x="38.93" y="37.18" width="5.93" height="5.25"/><rect class="cls-4" x="23.9" y="43.69" width="5.93" height="5.25"/><rect class="cls-4" x="31.41" y="43.69" width="5.93" height="5.25"/><rect class="cls-4" x="38.93" y="43.69" width="5.93" height="5.25"/><rect class="cls-4" x="23.9" y="50.21" width="5.93" height="5.25"/><rect class="cls-4" x="31.41" y="50.21" width="5.93" height="5.25"/><rect class="cls-4" x="38.93" y="50.21" width="5.93" height="5.25"/></g><g id="B3_Windows" data-name="B3 Windows"><rect class="cls-4" x="48.19" y="8.5" width="10.4" height="2.59"/><rect class="cls-4" x="48.19" y="11.57" width="10.4" height="2.59"/><rect class="cls-4" x="48.19" y="14.63" width="10.4" height="2.59"/><rect class="cls-4" x="48.19" y="17.7" width="10.4" height="2.59"/><rect class="cls-4" x="48.19" y="20.77" width="10.4" height="2.59"/><rect class="cls-4" x="48.19" y="23.84" width="10.4" height="2.59"/><rect class="cls-4" x="48.19" y="26.91" width="10.4" height="2.59"/><rect class="cls-4" x="48.19" y="29.98" width="10.4" height="2.59"/><rect class="cls-4" x="48.19" y="33.05" width="10.4" height="2.59"/><rect class="cls-4" x="48.19" y="36.11" width="10.4" height="2.59"/><rect class="cls-4" x="48.19" y="39.18" width="10.4" height="2.59"/><rect class="cls-4" x="48.19" y="42.25" width="10.4" height="2.59"/><rect class="cls-4" x="48.19" y="5.43" width="10.4" height="2.59"/></g><g id="Building_1_Windows" data-name="Building 1 Windows"><rect id="B1_Window_3" data-name="B1 Window 3" class="cls-4" x="14.85" y="27.57" width="3.69" height="3.26"/><rect id="B1_Window_4" data-name="B1 Window 4" class="cls-4" x="14.85" y="33.42" width="3.69" height="3.26"/><rect id="B1_Window_2" data-name="B1 Window 2" class="cls-4" x="14.85" y="21.72" width="3.69" height="3.26"/><rect id="B1_Window_1" data-name="B1 Window 1" class="cls-4" x="14.85" y="15.87" width="3.69" height="3.26"/><rect id="B1_Window_6" data-name="B1 Window 6" class="cls-4" x="14.85" y="45.12" width="3.69" height="3.26"/><rect id="B1_Window_7" data-name="B1 Window 7" class="cls-4" x="14.85" y="50.97" width="3.69" height="3.26"/><rect id="B1_Window_5" data-name="B1 Window 5" class="cls-4" x="14.85" y="39.27" width="3.69" height="3.26"/></g><g id="Building_1_Line" data-name="Building 1 Line"><rect class="cls-4" x="12.67" y="13.84" width="0.21" height="45.3"/></g><g id="Doors"><rect class="cls-4" x="49.19" y="49.1" width="4.07" height="9.61"/><rect class="cls-4" x="53.53" y="49.1" width="4.07" height="9.61"/></g><g id="R"><path class="cls-3" d="M40.78,18.07h2.08a1.82,1.82,0,0,1,1.33.46,1.43,1.43,0,0,1,.39,1h0a1.41,1.41,0,0,1-1,1.41l1.11,1.63H43.55l-1-1.46h-.79v1.46h-1Zm2,2.21c.49,0,.77-.26.77-.64h0c0-.43-.3-.65-.79-.65h-1v1.31Z" transform="translate(0 -12.7)"/></g><rect id="Rectangle_On_Top_of_Left_Building" data-name="Rectangle On Top of Left Building" class="cls-2" x="12.87" y="9.5" width="11.45" height="2.68"/><circle id="Antenna_Top" data-name="Antenna Top" class="cls-1" cx="18.54" cy="0.4" r="0.4"/><rect class="cls-1" y="57.91" width="72" height="1.38"/></svg>